<svg xmlns="http://www.w3.org/2000/svg" width="106.109" height="122" preserveAspectRatio="xMidYMid" style="background:0 0" viewBox="196.946 14 106.109 122"><defs><filter id="editing-liquid" width="150%" height="160%" x="-25%" y="-25%"><feFlood flood-color="#a0d5ff" result="flood-1"/><feFlood flood-color="rgba(100%,100%,100%,0.34)" result="flood-2"/><feFlood flood-color="#0067ff" result="flood-3"/><feTurbulence baseFrequency=".01" result="bs-1" seed="1" type="fractalNoise"/><feGaussianBlur in="SourceAlpha" result="bs-2" stdDeviation="10"/><feDisplacementMap in="bs-2" in2="bs-1" result="bs-3" scale="420"/><feComposite in="flood-1" in2="bs-3" operator="in" result="bs-4"/><feTurbulence baseFrequency=".02" numOctaves="2" result="ms-1" seed="2" type="fractalNoise"/><feGaussianBlur in="SourceAlpha" result="ms-2" stdDeviation=".1"/><feDisplacementMap in="ms-2" in2="ms-1" result="ms-3" scale="35"/><feComposite in="flood-3" in2="ms-3" operator="in" result="ms-4"/><feTurbulence baseFrequency=".05" result="ts-1" seed="3" type="fractalNoise"/><feGaussianBlur in="SourceAlpha" result="ts-2" stdDeviation="3.5"/><feDisplacementMap in="ts-2" in2="ts-1" result="ts-3" scale="220"/><feComposite in="flood-2" in2="ts-3" operator="in" result="ts-4"/><feMerge result="le-1"><feMergeNode in="bs-4"/><feMergeNode in="ms-4"/><feMergeNode in="ts-4"/></feMerge><feColorMatrix in="le-1" result="le-2" values="0 0 0 0 0, 0 0 0 0 0, 0 0 0 0 0, 0 0 0 1 0"/><feGaussianBlur in="le-2" result="le-3" stdDeviation="2"/><feSpecularLighting in="le-3" lighting-color="#white" result="le-4" specularConstant=".75" specularExponent="30" surfaceScale="5"><fePointLight x="-50" y="-100" z="400"/></feSpecularLighting><feComposite in="le-4" in2="le-2" operator="in" result="le-5"/><feComposite in="le-1" in2="le-5" k2="1" k3="1" operator="arithmetic" result="le-6"/></filter></defs><g filter="url(#editing-liquid)"><path fill="#444" d="M252.097 84.12q1.66 1.22 1.66 3.81t-1.12 4.42q-1.12 1.82-3.3 3.23-4.67 3.01-12.83 3.01t-12.61-4.26q-4.44-4.26-4.44-11.81 0-10.69 5.56-18.81 4.23-6.02 11.78-8.58 3.9-1.28 7.74-1.28 3.84 0 6.21.51t4.16 1.54q3.91 2.24 3.91 5.82 0 3.27-3.08 5.7-2.81 2.17-5.12 2.17-2.3 0-3.26-.32.26-2.3.26-3.8 0-1.51-.07-2.6-.06-1.08-.38-2.11-.64-2.37-2.59-2.37-1.96 0-3.91 1.83-1.95 1.82-3.61 4.89-3.78 6.98-3.78 15.24 0 3.96 2.24 6.24 2.24 2.27 7.04 2.27 3.58 0 6.98-2.37 1.47-1.02 2.56-2.37Zm20.22 13.25h-13.95l8.13-42.24h14.08l-8.26 42.24Z"/></g><style></style></svg>